<svg xmlns="http://www.w3.org/2000/svg" viewBox="0 0 100 120">
  <path fill="#001F3F" d="M83.42 61.4H17.96c-2.402 0-3.203-3.202-1.1-4.303L49.59 39.18c.7-.4 1.5-.4 2.201 0l32.73 17.817c2.102 1.2 1.301 4.403-1.101 4.403m2.402 45.241h-6.506V68.407a2.691 2.691 0 0 0-2.702-2.703H73.81a2.691 2.691 0 0 0-2.702 2.703v38.234H62.9V68.407a2.691 2.691 0 0 0-2.702-2.703h-2.802a2.691 2.691 0 0 0-2.703 2.703v38.234h-8.207V68.407a2.691 2.691 0 0 0-2.703-2.703h-2.802a2.691 2.691 0 0 0-2.703 2.703v38.234h-8.207V68.407a2.691 2.691 0 0 0-2.702-2.703h-2.803a2.691 2.691 0 0 0-2.702 2.703v38.234h-6.506c-.901 0-1.702.8-1.702 1.702v6.706H7.352c-.901 0-1.702.7-1.702 1.701v6.406h90.081v-6.406c0-.9-.8-1.701-1.702-1.701h-6.505v-6.706c0-.901-.701-1.702-1.702-1.702"/>
</svg>
