<svg xmlns="http://www.w3.org/2000/svg" version="1.1" xmlns:xlink="http://www.w3.org/1999/xlink" width="2000" height="553" viewBox="0 0 2000 553"><svg xml:space="preserve" width="2000" height="553" data-version="2" data-id="lg_dMPc0ffq2OfVssLHgy" viewBox="0 0 572 158" x="0" y="0">
    <path fill="#001F3F" d="M161.2 42.77h19.98v68.82h9.44V42.77h19.98v-8.88h-49.4Z"></path>
    <rect width="49.4" height="77.7" x="-24.7" y="-38.85" fill="none" rx="0" ry="0" transform="matrix(1 0 0 1 186.4 73.24)"></rect>
    <path fill="#001F3F" d="M212.93 95.83q0-2.77 1.33-4.77 1.33-2 4.05-3.11 2.72-1.11 7.05-1.11 4.66 0 8.77 1.17 4.1 1.16 7.99 3.83v-5.22q-.78-1-3-2.61-2.22-1.61-5.94-2.89-3.71-1.27-9.26-1.27-9.44 0-14.71 4.49-5.27 4.5-5.27 11.94 0 5.21 2.44 8.88 2.44 3.66 6.49 5.6 4.05 1.94 8.71 1.94 4.22 0 8.5-1.55 4.27-1.55 7.21-4.77 2.94-3.22 2.94-8.11l-1.77-6.66q0 4-1.95 7.05-1.94 3.05-5.21 4.72-3.28 1.66-7.38 1.66-3.22 0-5.72-1.05-2.5-1.05-3.89-3.16-1.38-2.11-1.38-5m-1.34-23.53q1.23-.89 3.33-2.11 2.11-1.22 5.17-2.11 3.05-.89 6.82-.89 2.33 0 4.44.45 2.11.44 3.72 1.44 1.61 1 2.5 2.72.89 1.72.89 4.38v35.41h8.88V74.96q0-4.99-2.5-8.43-2.5-3.44-6.99-5.28-4.5-1.83-10.49-1.83-7.11 0-12.16 2.11t-7.93 4.22Z"></path>
    <rect width="43.4" height="53.28" x="-21.7" y="-26.64" fill="none" rx="0" ry="0" transform="matrix(1 0 0 1 226.14 86.56)"></rect>
    <path fill="#001F3F" d="M262.32 25.01v86.58h8.88V25.01Z"></path>
    <rect width="8.88" height="86.58" x="-4.44" y="-43.29" fill="none" rx="0" ry="0" transform="matrix(1 0 0 1 267.26 68.8)"></rect>
    <path fill="#001F3F" d="M287.85 25.01v86.58h8.88V25.01Z"></path>
    <rect width="8.88" height="86.58" x="-4.44" y="-43.29" fill="none" rx="0" ry="0" transform="matrix(1 0 0 1 292.79 68.8)"></rect>
    <path fill="#001F3F" d="M353.9 60.53h-9.99l-15.77 39.52 3.67.44-16.21-39.96h-10.54l19.53 43.85-13.98 31.63h9.99Z"></path>
    <rect width="48.84" height="75.48" x="-24.42" y="-37.74" fill="none" rx="0" ry="0" transform="matrix(1 0 0 1 329.98 98.77)"></rect>
    <path fill="#001F3F" d="m357.23 60.53 24.42 54.95 24.42-54.95h-9.99l-14.43 36.08-14.43-36.08Z"></path>
    <rect width="48.84" height="54.95" x="-24.42" y="-27.475" fill="none" rx="0" ry="0" transform="matrix(1 0 0 1 382.15 88.505)"></rect>
    <path fill="#001F3F" d="M414.39 39.44q0 2.45 1.83 4.28t4.28 1.83q2.55 0 4.33-1.83 1.77-1.83 1.77-4.28 0-2.55-1.77-4.33-1.78-1.77-4.33-1.77-2.45 0-4.28 1.77-1.83 1.78-1.83 4.33m1.67 21.09v51.06h8.88V60.53Z"></path>
    <rect width="12.21" height="78.25" x="-6.105" y="-39.125" fill="none" rx="0" ry="0" transform="matrix(1 0 0 1 420.995 72.965)"></rect>
    <path fill="#001F3F" d="M463.01 112.7q8.21 0 14.26-3.27 6.05-3.28 10.05-9.71l-7.22-4.55q-2.77 4.66-6.77 6.93-3.99 2.28-9.21 2.28-5.22 0-8.88-2.22-3.66-2.22-5.55-6.44-1.89-4.22-1.89-10.21.11-5.88 2.06-9.94 1.94-4.05 5.55-6.21 3.6-2.17 8.71-2.17 4.33 0 7.55 1.89 3.22 1.89 5.05 5.22 1.83 3.33 1.83 7.88 0 .78-.33 1.94-.34 1.17-.67 1.72l3.55-5.1h-36.63v7.54h43.63q0-.22.05-1.05.06-.83.06-1.61 0-8.1-2.89-13.99-2.89-5.88-8.27-9.04-5.38-3.17-12.93-3.17t-13.26 3.33q-5.72 3.33-8.88 9.33-3.17 5.99-3.17 13.98 0 7.88 3.05 13.88 3.06 5.99 8.55 9.38 5.5 3.38 12.6 3.38"></path>
    <rect width="49.4" height="53.28" x="-24.7" y="-26.64" fill="none" rx="0" ry="0" transform="matrix(1 0 0 1 464.01 86.56)"></rect>
    <path fill="#001F3F" d="m490.98 60.53 22.2 54.95 14.54-37.19 15.43 37.19 22.2-54.95h-9.99l-12.87 33.41-14.88-37.29-13.87 37.07-12.77-33.19Z"></path>
    <rect width="74.37" height="58.83" x="-37.185" y="-29.415" fill="none" rx="0" ry="0" transform="matrix(1 0 0 1 528.665 86.565)"></rect>
    <path fill="#001F3F" d="M83.42 61.4H17.96c-2.402 0-3.203-3.202-1.1-4.303L49.59 39.18c.7-.4 1.5-.4 2.201 0l32.73 17.817c2.102 1.2 1.301 4.403-1.101 4.403m2.402 45.241h-6.506V68.407a2.691 2.691 0 0 0-2.702-2.703H73.81a2.691 2.691 0 0 0-2.702 2.703v38.234H62.9V68.407a2.691 2.691 0 0 0-2.702-2.703h-2.802a2.691 2.691 0 0 0-2.703 2.703v38.234h-8.207V68.407a2.691 2.691 0 0 0-2.703-2.703h-2.802a2.691 2.691 0 0 0-2.703 2.703v38.234h-8.207V68.407a2.691 2.691 0 0 0-2.702-2.703h-2.803a2.691 2.691 0 0 0-2.702 2.703v38.234h-6.506c-.901 0-1.702.8-1.702 1.702v6.706H7.352c-.901 0-1.702.7-1.702 1.701v6.406h90.081v-6.406c0-.9-.8-1.701-1.702-1.701h-6.505v-6.706c0-.901-.701-1.702-1.702-1.702"></path>
    <path stroke="#001F3F" stroke-width="4.175" d="M126.706 1.46v155.08"></path>
</svg></svg>